<svg xmlns="http://www.w3.org/2000/svg" xmlns:xlink="http://www.w3.org/1999/xlink" viewBox="0,0,255.99626,255.99626" width="48px" height="48px"><g fill="none" fill-rule="nonzero" stroke="none" stroke-width="1" stroke-linecap="butt" stroke-linejoin="miter" stroke-miterlimit="10" stroke-dasharray="" stroke-dashoffset="0" font-family="none" font-weight="none" font-size="none" text-anchor="none" style="mix-blend-mode: normal"><g transform="scale(5.33333,5.33333)"><path d="M27,7h-6c-1.7,0 -3,1.3 -3,3v3h2v-3c0,-0.6 0.4,-1 1,-1h6c0.6,0 1,0.4 1,1v3h2v-3c0,-1.7 -1.3,-3 -3,-3z" fill="#d388bf"></path><path d="M40,43h-32c-2.2,0 -4,-1.8 -4,-4v-24c0,-2.2 1.8,-4 4,-4h32c2.2,0 4,1.8 4,4v24c0,2.2 -1.8,4 -4,4z" fill="#646f58"></path><path d="M40,28h-32c-2.2,0 -4,-1.8 -4,-4v-9c0,-2.2 1.8,-4 4,-4h32c2.2,0 4,1.8 4,4v9c0,2.2 -1.8,4 -4,4z" fill="#717e63"></path><path d="M26,26h-4c-0.6,0 -1,-0.4 -1,-1v-2c0,-0.6 0.4,-1 1,-1h4c0.6,0 1,0.4 1,1v2c0,0.6 -0.4,1 -1,1z" fill="#edafb8"></path></g></g></svg>