<?xml version="1.0" encoding="UTF-8"?>
<svg id="Layer_2" data-name="Layer 2" xmlns="http://www.w3.org/2000/svg" viewBox="0 0 1240.48 1240.48">
  <defs>
    <style>
      .cls-1 {
        isolation: isolate;
      }

      .cls-2 {
        fill: #fff;
      }

      .cls-2, .cls-3 {
        stroke-width: 0px;
      }

      .cls-3 {
        fill: #c8a200;
      }
    </style>
  </defs>
  <g id="Layer_1-2" data-name="Layer 1">
    <polygon class="cls-3" points="351.47 0 0 0 1240.48 1240.48 1240.48 889.01 351.47 0"/>
    <g class="cls-1">
      <path class="cls-2" d="M340.95,81.46c3.93,3.93,7.84,8.5,11.73,13.7,3.89,5.2,6.53,9.72,7.94,13.56.56,1.12.77,2.04.63,2.74-.14.7-.68,1.62-1.62,2.74l-17.84,21.22c-.28.28-.68.26-1.19-.07-.52-.33-.68-.77-.49-1.33,4.12-10.3,5.59-20.16,4.43-29.58-1.17-9.41-5.36-17.73-12.58-24.94-6.28-6.28-13.19-10-20.73-11.17-7.54-1.17-15.25-.02-23.11,3.44-7.87,3.47-15.55,8.95-23.04,16.44-6.46,6.46-11.73,13.32-15.81,20.58-4.08,7.26-6.79,14.47-8.15,21.64-1.36,7.17-1.24,13.98.35,20.44,1.59,6.46,4.82,12.13,9.7,17,5.99,5.99,13.32,9.39,21.99,10.19,8.66.79,18.99-1.05,30.98-5.55.56-.19,1.03,0,1.41.56.37.56.42.98.14,1.26l-21.22,17c-1.31.93-2.25,1.45-2.81,1.54-.56.09-1.45-.09-2.67-.56-5.9-2.72-11.41-5.88-16.51-9.48-5.1-3.61-9.72-7.47-13.84-11.59-9.09-9.09-15.48-18.24-19.18-27.47s-5.32-18.15-4.85-26.77c.47-8.62,2.43-16.58,5.9-23.89,3.46-7.31,7.82-13.58,13.07-18.83,6.93-6.93,14.59-11.73,22.97-14.4,8.38-2.67,17-3.51,25.85-2.53,8.85.98,17.45,3.53,25.78,7.66,8.34,4.12,15.92,9.6,22.76,16.44Z"/>
      <path class="cls-2" d="M336.18,258.78c-6.74-6.74-11.66-14.05-14.75-21.92-3.09-7.87-4.48-15.86-4.15-23.96.33-8.1,2.18-15.95,5.55-23.53,3.37-7.59,8.15-14.47,14.33-20.66,7.59-7.59,15.71-12.76,24.38-15.53,8.66-2.76,17.33-3.61,25.99-2.53,8.66,1.08,16.83,3.58,24.52,7.52,7.68,3.93,14.38,8.76,20.09,14.47,6.93,6.93,11.9,14.38,14.89,22.34,3,7.96,4.31,15.97,3.93,24.03-.38,8.06-2.23,15.76-5.55,23.11-3.33,7.35-7.8,13.84-13.42,19.46-6.56,6.56-13.96,11.33-22.2,14.33-8.24,3-16.74,4.33-25.5,4-8.76-.33-17.31-2.27-25.64-5.83-8.34-3.56-15.83-8.67-22.48-15.32ZM344.33,259.91c5.24,5.24,11.42,8.43,18.55,9.55,7.12,1.12,14.78-.02,22.97-3.44,8.2-3.42,16.46-9.29,24.8-17.63s14.99-17.61,19.11-26.98c4.12-9.37,5.69-18.43,4.71-27.19-.99-8.76-4.9-16.56-11.73-23.39-8.52-8.52-18.31-11.85-29.37-9.98-11.05,1.87-22.29,8.52-33.72,19.95-6.84,6.84-12.34,13.93-16.51,21.29-4.17,7.35-6.96,14.59-8.36,21.71-1.41,7.12-1.31,13.77.28,19.95,1.59,6.18,4.68,11.57,9.27,16.16Z"/>
      <path class="cls-2" d="M428.35,311.89l68.15-65.34,3.79,4.36-68.01,64.91c-5.06,4.87-7.99,9.81-8.78,14.82-.8,5.01.72,9.44,4.57,13.28.28.28.14.7-.42,1.26s-.98.7-1.27.42c-2.06-2.06-4.12-4.22-6.18-6.46-2.06-2.25-4.45-4.73-7.17-7.45-3-3-5.76-5.67-8.29-8.01-2.53-2.34-4.83-4.54-6.88-6.6-.28-.28-.14-.7.42-1.27s.98-.7,1.26-.42c3.84,3.84,8.34,5.43,13.49,4.78,5.15-.65,10.25-3.42,15.31-8.29ZM512.79,428.65c.19.19,0,.56-.56,1.12s-.94.75-1.12.56c-2.44-2.44-5.15-5.24-8.15-8.43-3-3.18-6.18-6.46-9.55-9.84s-6.75-6.65-9.84-9.55c-3.09-2.9-5.86-5.57-8.29-8.01-.28-.28-.14-.7.42-1.26s.98-.7,1.26-.42c4.4,4.4,7.84,6.63,10.33,6.67,2.48.05,5.6-2.08,9.34-6.39l59.15-65.62,18.41-4.08-119.85,48.19c-.47.28-1.01.12-1.62-.49s-.82-1.2-.63-1.76l35.69-114.65c3.09-10.21,2.15-17.8-2.81-22.76-.28-.28-.14-.7.42-1.26s.98-.7,1.26-.42c1.97,1.97,3.98,4.07,6.04,6.32,2.06,2.25,3.84,4.12,5.34,5.62,2.44,2.44,4.61,4.52,6.53,6.25,1.92,1.73,3.39,3.11,4.43,4.15,1.31,1.31,1.85,2.79,1.62,4.43-.24,1.64-1.06,4.75-2.46,9.34l-27.54,90.49-19.67,5.62,108.33-42.57c1.87-.75,3.37-1.08,4.5-.98,1.12.09,2.2.65,3.23,1.69.94.94,1.87,1.97,2.81,3.09.94,1.12,2.11,2.39,3.51,3.79,3,3,5.6,5.5,7.8,7.52,2.2,2.02,4.33,4.05,6.39,6.11.28.28.14.7-.42,1.26s-.98.7-1.26.42c-4.31-4.31-8.36-6.58-12.15-6.82-3.8-.23-7.47,1.62-11.03,5.55l-60.42,67.16c-2.53,2.9-4.24,5.32-5.13,7.24-.89,1.92-.87,3.82.07,5.69.94,1.88,2.81,4.22,5.62,7.02Z"/>
      <path class="cls-2" d="M557.75,454.22c-2.72,2.72-4.54,5.01-5.48,6.88-.94,1.87-.94,3.75,0,5.62.94,1.88,2.86,4.26,5.76,7.17.28.28.14.7-.42,1.26-.56.56-.98.7-1.26.42-2.44-2.44-5.11-5.2-8.01-8.29-2.91-3.09-6.13-6.42-9.69-9.98-3.37-3.37-6.65-6.56-9.84-9.55-3.19-3-6-5.71-8.43-8.15-.19-.19,0-.56.56-1.12s.94-.75,1.12-.56c2.9,2.9,5.31,4.85,7.24,5.83,1.92.98,3.84,1.03,5.76.14,1.92-.89,4.24-2.69,6.96-5.41l65.05-65.05c2.72-2.72,4.49-5.01,5.34-6.88.84-1.87.79-3.79-.14-5.76-.94-1.97-2.86-4.4-5.76-7.31-.19-.19,0-.56.56-1.12s.94-.75,1.12-.56c2.43,2.43,5.13,5.27,8.08,8.5,2.95,3.23,6.11,6.53,9.48,9.91,3.56,3.56,6.93,6.79,10.12,9.69,3.18,2.9,5.95,5.53,8.29,7.87.28.28.14.7-.42,1.26-.56.56-.98.7-1.26.42-2.81-2.81-5.22-4.66-7.24-5.55-2.02-.89-3.96-.87-5.83.07-1.88.94-4.17,2.76-6.88,5.48l-64.77,64.77Z"/>
      <path class="cls-2" d="M660.61,432.59c-3.56,3.56-5.76,7.59-6.6,12.08-.84,4.5-.87,9.3-.07,14.4.79,5.11,1.75,10.37,2.88,15.81,1.31,5.81,2.34,11.57,3.09,17.28.75,5.71.56,11.24-.56,16.58-1.12,5.34-3.93,10.26-8.43,14.75-4.97,4.97-10.66,7.99-17.07,9.06-6.42,1.08-12.95.4-19.6-2.04-6.65-2.44-12.88-6.56-18.69-12.36-2.81-2.81-5.46-6.02-7.94-9.63-2.48-3.61-4.54-7.07-6.18-10.4-1.64-3.33-2.55-6.02-2.74-8.08-.09-.66-.12-1.29-.07-1.9.05-.61.49-1.33,1.33-2.18l21.92-22.76c.37-.56.84-.61,1.4-.14.56.47.7.94.42,1.4-1.5,4.31-3.02,8.92-4.57,13.84-1.54,4.92-2.62,9.79-3.23,14.61-.61,4.83-.47,9.41.42,13.77.89,4.36,3.02,8.22,6.39,11.59,2.15,2.15,4.59,3.84,7.31,5.06,2.72,1.22,5.69,1.48,8.92.77,3.23-.7,6.58-2.79,10.05-6.25,4.4-4.4,7.19-9.16,8.36-14.26,1.17-5.1,1.4-10.4.7-15.88-.7-5.48-1.66-10.98-2.88-16.51-1.13-5.43-2.04-10.79-2.74-16.09-.7-5.29-.52-10.35.56-15.17,1.07-4.83,3.67-9.3,7.8-13.42,5.25-5.25,11.01-8.05,17.28-8.43,6.27-.37,12.48.91,18.62,3.86,6.13,2.95,11.54,6.77,16.23,11.45,3.37,3.37,6.44,7.05,9.2,11.03,2.76,3.98,4.71,7.38,5.83,10.19.56,1.31.73,2.32.49,3.02-.24.7-.63,1.33-1.19,1.9l-20.66,20.65c-.28.28-.7.28-1.26,0-.56-.28-.8-.66-.7-1.12.56-1.69,1.61-4.33,3.16-7.94,1.54-3.61,2.88-7.66,4-12.15,1.12-4.5,1.38-9.06.77-13.7-.61-4.64-2.79-8.83-6.53-12.58-2.34-2.34-4.94-4-7.8-4.99-2.86-.98-5.79-1.15-8.78-.49-3,.65-5.95,2.44-8.85,5.34Z"/>
      <path class="cls-2" d="M732.97,504.95c-3.56,3.56-5.76,7.59-6.6,12.08s-.87,9.3-.07,14.4c.79,5.11,1.75,10.37,2.88,15.81,1.31,5.81,2.34,11.57,3.09,17.28.75,5.71.56,11.24-.56,16.58-1.12,5.34-3.93,10.26-8.43,14.75-4.97,4.97-10.66,7.99-17.07,9.06-6.42,1.08-12.95.4-19.6-2.04-6.65-2.44-12.88-6.56-18.69-12.36-2.81-2.81-5.46-6.02-7.94-9.63-2.48-3.61-4.54-7.07-6.18-10.4-1.64-3.33-2.55-6.02-2.74-8.08-.09-.66-.12-1.29-.07-1.9.04-.61.49-1.33,1.33-2.18l21.92-22.76c.37-.56.84-.61,1.41-.14.56.47.7.94.42,1.4-1.5,4.31-3.02,8.92-4.57,13.84-1.55,4.92-2.62,9.79-3.23,14.61-.61,4.83-.47,9.41.42,13.77.89,4.36,3.02,8.22,6.39,11.59,2.15,2.15,4.59,3.84,7.31,5.06,2.72,1.22,5.69,1.48,8.92.77,3.23-.7,6.58-2.79,10.05-6.25,4.4-4.4,7.19-9.16,8.36-14.26,1.17-5.1,1.4-10.4.7-15.88s-1.66-10.98-2.88-16.51c-1.13-5.43-2.04-10.79-2.74-16.09-.7-5.29-.52-10.35.56-15.17,1.07-4.83,3.67-9.3,7.8-13.42,5.25-5.25,11.01-8.05,17.28-8.43,6.27-.37,12.48.91,18.62,3.86,6.13,2.95,11.54,6.77,16.23,11.45,3.37,3.37,6.44,7.05,9.2,11.03,2.76,3.98,4.71,7.38,5.83,10.19.56,1.31.72,2.32.49,3.02-.24.7-.63,1.33-1.19,1.9l-20.65,20.65c-.28.28-.7.28-1.26,0s-.8-.66-.7-1.12c.56-1.69,1.61-4.33,3.16-7.94,1.54-3.61,2.88-7.66,4-12.15,1.12-4.5,1.38-9.06.77-13.7-.61-4.64-2.79-8.83-6.53-12.58-2.34-2.34-4.94-4-7.8-4.99-2.86-.98-5.79-1.15-8.78-.49-3,.65-5.95,2.44-8.85,5.34Z"/>
      <path class="cls-2" d="M750.53,647c-2.72,2.72-4.54,5.01-5.48,6.88-.94,1.87-.94,3.75,0,5.62.93,1.88,2.86,4.26,5.76,7.17.28.28.14.7-.42,1.26s-.98.7-1.26.42c-2.44-2.44-5.11-5.2-8.01-8.29-2.91-3.09-6.14-6.42-9.69-9.98-3.37-3.37-6.65-6.56-9.84-9.55-3.18-3-6-5.71-8.43-8.15-.19-.19,0-.56.56-1.12.56-.56.94-.75,1.12-.56,2.9,2.9,5.31,4.85,7.24,5.83,1.92.98,3.84,1.03,5.76.14,1.92-.89,4.24-2.69,6.96-5.41l65.05-65.05c2.72-2.72,4.49-5.01,5.34-6.88.84-1.87.79-3.79-.14-5.76-.94-1.97-2.86-4.4-5.76-7.31-.19-.19,0-.56.56-1.12.56-.56.94-.75,1.12-.56,2.43,2.43,5.13,5.27,8.08,8.5,2.95,3.23,6.11,6.53,9.48,9.91,3.56,3.56,6.93,6.79,10.12,9.69,3.18,2.9,5.95,5.53,8.29,7.87.28.28.14.7-.42,1.26-.56.56-.98.7-1.26.42-2.81-2.81-5.22-4.66-7.24-5.55-2.01-.89-3.96-.87-5.83.07-1.88.94-4.17,2.76-6.88,5.48l-64.77,64.77Z"/>
      <path class="cls-2" d="M805.04,727.65c-6.74-6.74-11.66-14.05-14.75-21.92s-4.47-15.86-4.15-23.96c.33-8.1,2.18-15.95,5.55-23.54s8.15-14.47,14.33-20.66c7.59-7.59,15.71-12.76,24.38-15.52,8.66-2.76,17.33-3.61,25.99-2.53,8.66,1.08,16.83,3.58,24.52,7.52,7.68,3.93,14.38,8.76,20.09,14.47,6.93,6.93,11.89,14.38,14.89,22.34,3,7.96,4.31,15.97,3.93,24.03-.38,8.06-2.23,15.76-5.55,23.11-3.33,7.35-7.8,13.84-13.42,19.46-6.56,6.56-13.96,11.33-22.2,14.33-8.24,3-16.74,4.33-25.5,4.01-8.76-.33-17.31-2.27-25.64-5.83-8.34-3.56-15.83-8.67-22.48-15.32ZM813.19,728.77c5.25,5.25,11.43,8.43,18.55,9.55,7.12,1.12,14.78-.02,22.97-3.44,8.2-3.42,16.46-9.29,24.8-17.63s14.99-17.61,19.11-26.98c4.12-9.37,5.69-18.43,4.71-27.19-.99-8.76-4.9-16.56-11.73-23.39-8.52-8.52-18.31-11.85-29.37-9.98-11.05,1.87-22.29,8.53-33.72,19.95-6.84,6.84-12.34,13.93-16.51,21.29-4.17,7.35-6.96,14.59-8.36,21.71-1.41,7.12-1.31,13.77.28,19.95,1.59,6.18,4.68,11.57,9.27,16.16Z"/>
      <path class="cls-2" d="M898.62,782.17l66.74-66.74,3.93,4.5-66.46,66.46c-4.97,4.97-7.87,9.93-8.71,14.89-.84,4.96.56,9.27,4.22,12.93.19.19,0,.56-.56,1.12s-.94.75-1.12.56c-2.06-2.06-4.15-4.24-6.25-6.53-2.11-2.29-4.47-4.75-7.09-7.38-2.81-2.81-5.6-5.5-8.36-8.08-2.76-2.58-5.27-4.99-7.52-7.24-.28-.28-.14-.7.42-1.26s.98-.7,1.26-.42c4.12,4.12,8.83,5.93,14.12,5.41,5.29-.51,10.42-3.25,15.38-8.22ZM950.33,873.78c-.28.28-.65.23-1.12-.14-.47-.38-.75-.71-.84-.98l9.55-148.09c.47-7.21.21-12.67-.77-16.37-.98-3.7-2.65-6.72-4.99-9.06-.19-.19,0-.56.56-1.12s.93-.75,1.12-.56c1.87,1.87,3.75,3.84,5.62,5.9,1.87,2.06,3.65,3.93,5.34,5.62,3.37,3.37,6.46,6.37,9.27,8.99,2.81,2.62,4.96,4.68,6.46,6.18,1.22,1.22,1.59,2.67,1.12,4.36-.47,1.69-.94,5.01-1.4,9.98l-7.87,111-22.06,24.31ZM1022.27,801.84l-71.94,71.94.14-8.29,67.72-67.72c4.96-4.96,7.89-9.95,8.78-14.96.89-5.01-.49-9.34-4.14-13-.19-.19,0-.56.56-1.12s.93-.75,1.12-.56c2.06,2.06,4.12,4.26,6.18,6.6,2.06,2.34,4.4,4.82,7.03,7.45s5.08,4.94,7.66,7.24c2.58,2.29,4.89,4.47,6.96,6.53.19.19,0,.56-.56,1.12s-.94.75-1.12.56c-3.75-3.75-8.17-5.22-13.28-4.43-5.11.79-10.14,3.68-15.1,8.64Z"/>
      <path class="cls-2" d="M1034.07,953.3l-62.1-62.1c-.28-.28-.14-.7.42-1.26s.98-.7,1.26-.42c2.9,2.9,5.29,4.83,7.17,5.76,1.87.94,3.75.94,5.62,0,1.87-.94,4.17-2.76,6.88-5.48l65.05-65.05c2.72-2.72,4.52-4.99,5.41-6.81.89-1.83.89-3.7,0-5.62-.89-1.92-2.79-4.33-5.69-7.24-.28-.28-.14-.7.42-1.26s.98-.7,1.26-.42l59.57,59.57c.94.94.98,1.83.14,2.67l-18.41,18.97c-.19.19-.56.09-1.12-.28-.56-.38-.8-.8-.7-1.26,4.03-7.03,5.55-13.61,4.57-19.74-.99-6.14-4.38-12.11-10.19-17.92l-4.22-4.22c-1.87-1.87-3.68-3.16-5.41-3.86-1.73-.7-3.44-.77-5.13-.21-1.69.56-3.37,1.68-5.06,3.37l-64.35,64.35c-1.78,1.78-3.05,3.51-3.79,5.2-.75,1.69-.94,3.28-.56,4.78.37,1.5,1.31,3,2.81,4.5l4.64,4.64c7.31,7.31,14.66,11.66,22.06,13.07,7.4,1.41,15.27,0,23.61-4.21.37-.19.75.05,1.12.7.37.65.47,1.08.28,1.26-3.09,2.34-6.63,5.22-10.61,8.64-3.98,3.42-7.56,6.72-10.75,9.91-1.41,1.41-2.81,1.41-4.21,0ZM1057.53,914.1c3.84-3.84,5.41-8.31,4.71-13.42-.71-5.1-3.86-10.47-9.48-16.09l-18.97-18.97,3.93-3.93,19.11,19.11c5.53,5.53,10.67,8.76,15.46,9.7,4.77.94,8.8-.23,12.08-3.51.28-.28.68-.17,1.19.35s.63.91.35,1.19c-3.09,3.09-5.53,5.48-7.31,7.17-1.78,1.69-3.61,3.47-5.48,5.34-2.34,2.34-4.57,4.71-6.67,7.1-2.11,2.39-4.52,4.94-7.24,7.66-.19.19-.56,0-1.12-.56s-.75-.94-.56-1.12Z"/>
      <path class="cls-2" d="M1089,1009.36c-3-3-6.6-6.88-10.82-11.66-4.22-4.78-8.2-9.04-11.94-12.79-3.37-3.37-6.65-6.56-9.83-9.55-3.18-3-6-5.72-8.43-8.15-.19-.19,0-.56.56-1.12s.94-.75,1.12-.56c2.9,2.9,5.31,4.85,7.24,5.83,1.92.98,3.84,1.03,5.76.14,1.92-.89,4.24-2.69,6.96-5.41l65.05-65.05c2.72-2.72,4.52-4.99,5.41-6.81.89-1.83.86-3.72-.07-5.69-.94-1.97-2.81-4.36-5.62-7.17-.28-.28-.14-.7.42-1.26s.98-.7,1.26-.42c2.43,2.43,5.08,5.22,7.94,8.36,2.86,3.14,6.02,6.44,9.48,9.91s7.19,6.95,11.45,10.75c4.26,3.79,7.84,7.14,10.75,10.05,9.74,9.74,16.34,20.09,19.81,31.05,3.46,10.96,3.98,21.68,1.55,32.18-2.44,10.49-7.68,19.76-15.74,27.82-7.03,7.03-14.59,12.16-22.69,15.39-8.11,3.23-16.3,4.68-24.59,4.36-8.29-.33-16.3-2.2-24.03-5.62-7.73-3.42-14.73-8.27-21.01-14.54ZM1090.83,1004.72c5.9,5.9,12.67,9.62,20.3,11.17,7.63,1.54,15.71.68,24.24-2.6,8.52-3.28,17.05-9.18,25.57-17.7,7.96-7.96,13.96-16.39,17.99-25.29,4.03-8.9,5.74-17.45,5.13-25.64-.61-8.2-3.96-15.34-10.05-21.43-5.43-5.43-9.84-8.81-13.21-10.12-3.38-1.31-6.98-.05-10.82,3.79l-63.23,63.23c-3.47,3.47-5.13,6.95-4.99,10.47.14,3.51,3.16,8.22,9.06,14.12Z"/>
    </g>
  </g>
</svg>